<svg xmlns="http://www.w3.org/2000/svg" xmlns:xlink="http://www.w3.org/1999/xlink" width="145" zoomAndPan="magnify" viewBox="0 0 108.75 30.000001" height="40" preserveAspectRatio="xMidYMid meet" version="1.0"><defs><g/><clipPath id="23582fe08e"><path d="M 101.449219 1.046875 L 106.136719 1.046875 L 106.136719 8.011719 L 101.449219 8.011719 Z M 101.449219 1.046875 " clip-rule="nonzero"/></clipPath><clipPath id="55695b9335"><path d="M 78.582031 13 L 83 13 L 83 16 L 78.582031 16 Z M 78.582031 13 " clip-rule="nonzero"/></clipPath><clipPath id="3367c73e70"><path d="M 1.632812 15 L 12 15 L 12 28 L 1.632812 28 Z M 1.632812 15 " clip-rule="nonzero"/></clipPath></defs><g clip-path="url(#23582fe08e)"><path fill="#ffffff" d="M 103.566406 1.046875 L 106.136719 7.117188 L 104.03125 8.007812 L 103.652344 7.117188 L 101.839844 2.828125 L 101.460938 1.9375 L 103.566406 1.046875 " fill-opacity="1" fill-rule="nonzero"/></g><path fill="#ffffff" d="M 91.78125 12.136719 C 91.855469 12.289062 91.894531 12.460938 91.894531 12.644531 C 91.894531 13.308594 91.351562 13.851562 90.6875 13.851562 C 90.171875 13.851562 89.734375 13.527344 89.558594 13.078125 C 89.507812 12.941406 89.480469 12.796875 89.480469 12.644531 C 89.480469 11.976562 90.019531 11.433594 90.6875 11.433594 C 91.171875 11.433594 91.589844 11.722656 91.78125 12.136719 " fill-opacity="1" fill-rule="nonzero"/><path fill="#ffffff" d="M 101.394531 3.347656 L 102.972656 7.074219 L 92.195312 11.628906 C 91.867188 11.144531 91.316406 10.824219 90.6875 10.824219 C 89.683594 10.824219 88.871094 11.640625 88.871094 12.644531 C 88.871094 12.773438 88.882812 12.898438 88.910156 13.019531 L 83.21875 15.425781 L 82.789062 14.410156 L 82.074219 12.71875 L 81.640625 11.703125 L 101.394531 3.347656 " fill-opacity="1" fill-rule="nonzero"/><g clip-path="url(#55695b9335)"><path fill="#ffffff" d="M 81.628906 13.238281 L 82.105469 14.367188 L 79.0625 15.652344 L 78.585938 14.523438 L 81.628906 13.238281 " fill-opacity="1" fill-rule="nonzero"/></g><path fill="#ffffff" d="M 96.304688 28.550781 C 96.375 28.703125 96.308594 28.886719 96.152344 28.953125 C 96 29.023438 95.820312 28.953125 95.75 28.800781 L 90.992188 18.21875 L 90.992188 16.730469 L 96.304688 28.550781 " fill-opacity="1" fill-rule="nonzero"/><path fill="#ffffff" d="M 90.992188 18.21875 L 90.992188 28.675781 C 90.992188 28.84375 90.855469 28.980469 90.6875 28.980469 C 90.519531 28.980469 90.382812 28.84375 90.382812 28.675781 L 90.382812 18.21875 L 90.6875 17.539062 L 90.992188 18.21875 " fill-opacity="1" fill-rule="nonzero"/><path fill="#ffffff" d="M 90.992188 16.730469 L 90.992188 18.21875 L 90.6875 17.539062 L 90.382812 18.21875 L 90.382812 16.730469 L 90.410156 16.671875 C 90.457031 16.5625 90.566406 16.492188 90.6875 16.492188 C 90.808594 16.492188 90.914062 16.5625 90.964844 16.671875 L 90.992188 16.730469 " fill-opacity="1" fill-rule="nonzero"/><path fill="#ffffff" d="M 90.992188 14.433594 L 90.992188 16.730469 L 90.964844 16.671875 C 90.914062 16.5625 90.808594 16.492188 90.6875 16.492188 C 90.566406 16.492188 90.457031 16.5625 90.410156 16.671875 L 90.382812 16.730469 L 90.382812 14.433594 C 90.480469 14.453125 90.582031 14.460938 90.6875 14.460938 C 90.789062 14.460938 90.894531 14.453125 90.992188 14.433594 " fill-opacity="1" fill-rule="nonzero"/><path fill="#ffffff" d="M 90.382812 16.730469 L 90.382812 18.21875 L 85.625 28.800781 C 85.574219 28.914062 85.460938 28.980469 85.34375 28.980469 C 85.304688 28.980469 85.261719 28.972656 85.21875 28.953125 C 85.066406 28.886719 84.996094 28.703125 85.066406 28.550781 L 90.382812 16.730469 " fill-opacity="1" fill-rule="nonzero"/><g clip-path="url(#3367c73e70)"><g fill="#ffffff" fill-opacity="1"><g transform="translate(1.633063, 27.464516)"><g><path d="M 9.671875 -9.5625 L 6.15625 -9.5625 L 6.15625 0 L 3.78125 0 L 3.78125 -9.5625 L 0.3125 -9.5625 L 0.3125 -11.484375 L 9.671875 -11.484375 Z M 9.671875 -9.5625 "/></g></g></g></g><g fill="#ffffff" fill-opacity="1"><g transform="translate(11.623799, 27.464516)"><g><path d="M 3.28125 0 L 1 0 L 1 -8.53125 L 3.28125 -8.53125 Z M 0.859375 -10.75 C 0.859375 -11.082031 0.972656 -11.359375 1.203125 -11.578125 C 1.429688 -11.804688 1.742188 -11.921875 2.140625 -11.921875 C 2.523438 -11.921875 2.832031 -11.804688 3.0625 -11.578125 C 3.300781 -11.359375 3.421875 -11.082031 3.421875 -10.75 C 3.421875 -10.394531 3.300781 -10.109375 3.0625 -9.890625 C 2.832031 -9.671875 2.523438 -9.5625 2.140625 -9.5625 C 1.753906 -9.5625 1.441406 -9.671875 1.203125 -9.890625 C 0.972656 -10.109375 0.859375 -10.394531 0.859375 -10.75 Z M 0.859375 -10.75 "/></g></g></g><g fill="#ffffff" fill-opacity="1"><g transform="translate(15.905543, 27.464516)"><g><path d="M 4.421875 -1.6875 C 4.847656 -1.6875 5.191406 -1.800781 5.453125 -2.03125 C 5.710938 -2.257812 5.847656 -2.566406 5.859375 -2.953125 L 8 -2.953125 C 7.988281 -2.367188 7.828125 -1.835938 7.515625 -1.359375 C 7.210938 -0.878906 6.789062 -0.503906 6.25 -0.234375 C 5.707031 0.0234375 5.113281 0.15625 4.46875 0.15625 C 3.25 0.15625 2.285156 -0.226562 1.578125 -1 C 0.867188 -1.78125 0.515625 -2.851562 0.515625 -4.21875 L 0.515625 -4.375 C 0.515625 -5.6875 0.863281 -6.734375 1.5625 -7.515625 C 2.269531 -8.296875 3.234375 -8.6875 4.453125 -8.6875 C 5.515625 -8.6875 6.367188 -8.382812 7.015625 -7.78125 C 7.660156 -7.175781 7.988281 -6.367188 8 -5.359375 L 5.859375 -5.359375 C 5.847656 -5.796875 5.710938 -6.148438 5.453125 -6.421875 C 5.191406 -6.703125 4.84375 -6.84375 4.40625 -6.84375 C 3.875 -6.84375 3.472656 -6.648438 3.203125 -6.265625 C 2.929688 -5.878906 2.796875 -5.253906 2.796875 -4.390625 L 2.796875 -4.15625 C 2.796875 -3.269531 2.929688 -2.632812 3.203125 -2.25 C 3.472656 -1.875 3.878906 -1.6875 4.421875 -1.6875 Z M 4.421875 -1.6875 "/></g></g></g><g fill="#ffffff" fill-opacity="1"><g transform="translate(24.327095, 27.464516)"><g><path d="M 3.96875 -3.421875 L 3.15625 -2.609375 L 3.15625 0 L 0.875 0 L 0.875 -12.125 L 3.15625 -12.125 L 3.15625 -5.40625 L 3.59375 -5.96875 L 5.78125 -8.53125 L 8.515625 -8.53125 L 5.4375 -4.984375 L 8.78125 0 L 6.171875 0 Z M 3.96875 -3.421875 "/></g></g></g><g fill="#ffffff" fill-opacity="1"><g transform="translate(32.953666, 27.464516)"><g><path d="M 4.796875 0.15625 C 3.546875 0.15625 2.523438 -0.222656 1.734375 -0.984375 C 0.953125 -1.753906 0.5625 -2.78125 0.5625 -4.0625 L 0.5625 -4.28125 C 0.5625 -5.132812 0.726562 -5.898438 1.0625 -6.578125 C 1.394531 -7.253906 1.863281 -7.773438 2.46875 -8.140625 C 3.082031 -8.503906 3.773438 -8.6875 4.546875 -8.6875 C 5.710938 -8.6875 6.628906 -8.316406 7.296875 -7.578125 C 7.972656 -6.847656 8.3125 -5.804688 8.3125 -4.453125 L 8.3125 -3.53125 L 2.875 -3.53125 C 2.945312 -2.96875 3.171875 -2.519531 3.546875 -2.1875 C 3.921875 -1.851562 4.390625 -1.6875 4.953125 -1.6875 C 5.828125 -1.6875 6.515625 -2.003906 7.015625 -2.640625 L 8.140625 -1.375 C 7.796875 -0.894531 7.332031 -0.519531 6.75 -0.25 C 6.164062 0.0195312 5.515625 0.15625 4.796875 0.15625 Z M 4.546875 -6.84375 C 4.085938 -6.84375 3.71875 -6.691406 3.4375 -6.390625 C 3.15625 -6.085938 2.976562 -5.648438 2.90625 -5.078125 L 6.078125 -5.078125 L 6.078125 -5.265625 C 6.066406 -5.765625 5.925781 -6.148438 5.65625 -6.421875 C 5.394531 -6.703125 5.023438 -6.84375 4.546875 -6.84375 Z M 4.546875 -6.84375 "/></g></g></g><g fill="#ffffff" fill-opacity="1"><g transform="translate(41.682747, 27.464516)"><g><path d="M 3.609375 -10.640625 L 3.609375 -8.53125 L 5.0625 -8.53125 L 5.0625 -6.859375 L 3.609375 -6.859375 L 3.609375 -2.609375 C 3.609375 -2.285156 3.664062 -2.054688 3.78125 -1.921875 C 3.90625 -1.785156 4.140625 -1.71875 4.484375 -1.71875 C 4.734375 -1.71875 4.957031 -1.738281 5.15625 -1.78125 L 5.15625 -0.046875 C 4.707031 0.0859375 4.242188 0.15625 3.765625 0.15625 C 2.171875 0.15625 1.359375 -0.648438 1.328125 -2.265625 L 1.328125 -6.859375 L 0.078125 -6.859375 L 0.078125 -8.53125 L 1.328125 -8.53125 L 1.328125 -10.640625 Z M 3.609375 -10.640625 "/></g></g></g><g fill="#ffffff" fill-opacity="1"><g transform="translate(47.139408, 27.464516)"><g><path d="M 6.984375 -3.015625 C 6.984375 -3.460938 6.820312 -3.804688 6.5 -4.046875 C 6.1875 -4.285156 5.617188 -4.535156 4.796875 -4.796875 C 3.984375 -5.066406 3.335938 -5.328125 2.859375 -5.578125 C 1.554688 -6.285156 0.90625 -7.238281 0.90625 -8.4375 C 0.90625 -9.050781 1.078125 -9.601562 1.421875 -10.09375 C 1.773438 -10.582031 2.273438 -10.960938 2.921875 -11.234375 C 3.578125 -11.503906 4.316406 -11.640625 5.140625 -11.640625 C 5.953125 -11.640625 6.679688 -11.488281 7.328125 -11.1875 C 7.972656 -10.894531 8.472656 -10.476562 8.828125 -9.9375 C 9.179688 -9.394531 9.359375 -8.78125 9.359375 -8.09375 L 6.984375 -8.09375 C 6.984375 -8.613281 6.816406 -9.019531 6.484375 -9.3125 C 6.160156 -9.613281 5.695312 -9.765625 5.09375 -9.765625 C 4.519531 -9.765625 4.070312 -9.640625 3.75 -9.390625 C 3.425781 -9.148438 3.265625 -8.828125 3.265625 -8.421875 C 3.265625 -8.046875 3.453125 -7.734375 3.828125 -7.484375 C 4.203125 -7.234375 4.753906 -7 5.484375 -6.78125 C 6.835938 -6.375 7.820312 -5.867188 8.4375 -5.265625 C 9.050781 -4.671875 9.359375 -3.925781 9.359375 -3.03125 C 9.359375 -2.03125 8.976562 -1.25 8.21875 -0.6875 C 7.46875 -0.125 6.457031 0.15625 5.1875 0.15625 C 4.300781 0.15625 3.492188 -0.00390625 2.765625 -0.328125 C 2.046875 -0.648438 1.492188 -1.09375 1.109375 -1.65625 C 0.734375 -2.21875 0.546875 -2.867188 0.546875 -3.609375 L 2.921875 -3.609375 C 2.921875 -2.347656 3.675781 -1.71875 5.1875 -1.71875 C 5.75 -1.71875 6.1875 -1.828125 6.5 -2.046875 C 6.820312 -2.273438 6.984375 -2.597656 6.984375 -3.015625 Z M 6.984375 -3.015625 "/></g></g></g><g fill="#ffffff" fill-opacity="1"><g transform="translate(57.067062, 27.464516)"><g><path d="M 4.421875 -1.6875 C 4.847656 -1.6875 5.191406 -1.800781 5.453125 -2.03125 C 5.710938 -2.257812 5.847656 -2.566406 5.859375 -2.953125 L 8 -2.953125 C 7.988281 -2.367188 7.828125 -1.835938 7.515625 -1.359375 C 7.210938 -0.878906 6.789062 -0.503906 6.25 -0.234375 C 5.707031 0.0234375 5.113281 0.15625 4.46875 0.15625 C 3.25 0.15625 2.285156 -0.226562 1.578125 -1 C 0.867188 -1.78125 0.515625 -2.851562 0.515625 -4.21875 L 0.515625 -4.375 C 0.515625 -5.6875 0.863281 -6.734375 1.5625 -7.515625 C 2.269531 -8.296875 3.234375 -8.6875 4.453125 -8.6875 C 5.515625 -8.6875 6.367188 -8.382812 7.015625 -7.78125 C 7.660156 -7.175781 7.988281 -6.367188 8 -5.359375 L 5.859375 -5.359375 C 5.847656 -5.796875 5.710938 -6.148438 5.453125 -6.421875 C 5.191406 -6.703125 4.84375 -6.84375 4.40625 -6.84375 C 3.875 -6.84375 3.472656 -6.648438 3.203125 -6.265625 C 2.929688 -5.878906 2.796875 -5.253906 2.796875 -4.390625 L 2.796875 -4.15625 C 2.796875 -3.269531 2.929688 -2.632812 3.203125 -2.25 C 3.472656 -1.875 3.878906 -1.6875 4.421875 -1.6875 Z M 4.421875 -1.6875 "/></g></g></g><g fill="#ffffff" fill-opacity="1"><g transform="translate(65.488614, 27.464516)"><g><path d="M 0.515625 -4.34375 C 0.515625 -5.1875 0.675781 -5.941406 1 -6.609375 C 1.332031 -7.273438 1.804688 -7.785156 2.421875 -8.140625 C 3.035156 -8.503906 3.742188 -8.6875 4.546875 -8.6875 C 5.703125 -8.6875 6.644531 -8.332031 7.375 -7.625 C 8.101562 -6.925781 8.507812 -5.972656 8.59375 -4.765625 L 8.609375 -4.1875 C 8.609375 -2.875 8.238281 -1.820312 7.5 -1.03125 C 6.769531 -0.238281 5.789062 0.15625 4.5625 0.15625 C 3.332031 0.15625 2.347656 -0.234375 1.609375 -1.015625 C 0.878906 -1.804688 0.515625 -2.882812 0.515625 -4.25 Z M 2.796875 -4.1875 C 2.796875 -3.375 2.945312 -2.753906 3.25 -2.328125 C 3.5625 -1.898438 4 -1.6875 4.5625 -1.6875 C 5.113281 -1.6875 5.546875 -1.894531 5.859375 -2.3125 C 6.171875 -2.738281 6.328125 -3.414062 6.328125 -4.34375 C 6.328125 -5.132812 6.171875 -5.75 5.859375 -6.1875 C 5.546875 -6.625 5.109375 -6.84375 4.546875 -6.84375 C 3.992188 -6.84375 3.5625 -6.625 3.25 -6.1875 C 2.945312 -5.757812 2.796875 -5.09375 2.796875 -4.1875 Z M 2.796875 -4.1875 "/></g></g></g><g fill="#ffffff" fill-opacity="1"><g transform="translate(74.619847, 27.464516)"><g><path d="M 5.984375 -0.875 C 5.421875 -0.1875 4.644531 0.15625 3.65625 0.15625 C 2.738281 0.15625 2.039062 -0.101562 1.5625 -0.625 C 1.082031 -1.15625 0.835938 -1.925781 0.828125 -2.9375 L 0.828125 -8.53125 L 3.09375 -8.53125 L 3.09375 -3.015625 C 3.09375 -2.128906 3.5 -1.6875 4.3125 -1.6875 C 5.082031 -1.6875 5.613281 -1.957031 5.90625 -2.5 L 5.90625 -8.53125 L 8.203125 -8.53125 L 8.203125 0 L 6.046875 0 Z M 5.984375 -0.875 "/></g></g></g><g fill="#ffffff" fill-opacity="1"><g transform="translate(83.660532, 27.464516)"><g/></g></g></svg>