<svg xmlns="http://www.w3.org/2000/svg" xmlns:xlink="http://www.w3.org/1999/xlink" width="500" zoomAndPan="magnify" viewBox="0 0 375 374.999991" height="500" preserveAspectRatio="xMidYMid meet" version="1.0"><defs><clipPath id="5851692e4a"><path d="M 309.289062 0 L 372.132812 0 L 372.132812 93.367188 L 309.289062 93.367188 Z M 309.289062 0 " clip-rule="nonzero"/></clipPath><clipPath id="2fdcf66151"><path d="M 2.8125 163 L 51 163 L 51 196 L 2.8125 196 Z M 2.8125 163 " clip-rule="nonzero"/></clipPath></defs><g clip-path="url(#5851692e4a)"><path fill="#ffffff" d="M 337.710938 0 L 372.132812 81.386719 L 343.898438 93.328125 L 338.839844 81.367188 L 314.535156 23.898438 L 309.476562 11.941406 L 337.710938 0 " fill-opacity="1" fill-rule="nonzero"/></g><path fill="#ffffff" d="M 179.753906 148.65625 C 180.714844 150.722656 181.25 153.023438 181.25 155.453125 C 181.25 164.375 173.988281 171.640625 165.0625 171.640625 C 158.183594 171.640625 152.292969 167.328125 149.949219 161.261719 C 149.253906 159.457031 148.871094 157.5 148.871094 155.453125 C 148.871094 146.523438 156.136719 139.261719 165.0625 139.261719 C 171.5625 139.261719 177.183594 143.113281 179.753906 148.65625 " fill-opacity="1" fill-rule="nonzero"/><path fill="#ffffff" d="M 308.601562 30.84375 L 329.722656 80.789062 L 185.285156 141.882812 C 180.90625 135.378906 173.476562 131.089844 165.0625 131.089844 C 151.628906 131.089844 140.703125 142.015625 140.703125 155.453125 C 140.703125 157.1875 140.882812 158.878906 141.230469 160.511719 L 64.957031 192.773438 L 59.183594 179.125 L 49.605469 156.476562 L 43.832031 142.832031 L 308.601562 30.84375 " fill-opacity="1" fill-rule="nonzero"/><g clip-path="url(#2fdcf66151)"><path fill="#ffffff" d="M 43.671875 163.425781 L 50.066406 178.546875 L 9.257812 195.804688 L 2.863281 180.683594 L 43.671875 163.425781 " fill-opacity="1" fill-rule="nonzero"/></g><path fill="#ffffff" d="M 240.386719 368.675781 C 241.3125 370.734375 240.390625 373.152344 238.332031 374.078125 C 236.277344 375.003906 233.855469 374.082031 232.933594 372.027344 L 169.148438 230.167969 L 169.148438 210.242188 L 240.386719 368.675781 " fill-opacity="1" fill-rule="nonzero"/><path fill="#ffffff" d="M 169.148438 230.167969 L 169.148438 370.351562 C 169.148438 372.609375 167.316406 374.4375 165.0625 374.4375 C 162.804688 374.4375 160.976562 372.609375 160.976562 370.351562 L 160.976562 230.164062 L 165.0625 221.078125 L 169.148438 230.167969 " fill-opacity="1" fill-rule="nonzero"/><path fill="#ffffff" d="M 169.148438 210.242188 L 169.148438 230.167969 L 165.0625 221.078125 L 160.976562 230.164062 L 160.976562 210.238281 L 161.332031 209.441406 C 161.996094 207.972656 163.453125 207.03125 165.0625 207.03125 C 166.667969 207.03125 168.128906 207.972656 168.789062 209.441406 L 169.148438 210.242188 " fill-opacity="1" fill-rule="nonzero"/><path fill="#ffffff" d="M 169.148438 179.464844 L 169.148438 210.242188 L 168.789062 209.441406 C 168.128906 207.972656 166.667969 207.03125 165.0625 207.03125 C 163.453125 207.03125 161.996094 207.972656 161.332031 209.441406 L 160.976562 210.238281 L 160.976562 179.464844 C 162.304688 179.691406 163.671875 179.808594 165.0625 179.808594 C 166.453125 179.808594 167.820312 179.691406 169.148438 179.464844 " fill-opacity="1" fill-rule="nonzero"/><path fill="#ffffff" d="M 160.976562 210.238281 L 160.976562 230.164062 L 97.191406 372.027344 C 96.511719 373.539062 95.019531 374.4375 93.460938 374.4375 C 92.902344 374.4375 92.332031 374.320312 91.789062 374.078125 C 89.730469 373.152344 88.8125 370.734375 89.738281 368.675781 L 160.976562 210.238281 " fill-opacity="1" fill-rule="nonzero"/></svg>